<?xml version="1.0" encoding="utf-8"?>
<!DOCTYPE svg PUBLIC "-//W3C//DTD SVG 1.1//EN" "http://www.w3.org/Graphics/SVG/1.1/DTD/svg11.dtd">
<svg version="1.1" id="Layer_1" xmlns="http://www.w3.org/2000/svg" xmlns:xlink="http://www.w3.org/1999/xlink" x="0px" y="0px" width="106px" height="160px" viewBox="0 0 106 160" enable-background="new 0 0 106 160" xml:space="preserve">
<style>path{fill:#FAFAFA;}</style>
<path d="M53.432,42.461c20.71,0,37.5,16.79,37.5,37.5c0,20.711-16.789,37.5-37.5,37.5 c-20.711,0-37.5-16.789-37.5-37.5C15.932,59.25,32.721,42.461,53.432,42.461 M53.432,40.461c-21.78,0-39.5,17.72-39.5,39.5 s17.72,39.5,39.5,39.5c21.78,0,39.5-17.72,39.5-39.5S75.212,40.461,53.432,40.461L53.432,40.461z"/>
<path d="M99,5c1.1,0,2,0.9,2,2v146c0,1.1-0.9,2-2,2H7c-1.1,0-2-0.9-2-2V7c0-1.1,0.9-2,2-2H99 M99,3H7 C4.794,3,3,4.794,3,7v146c0,2.206,1.794,4,4,4h92c2.206,0,4-1.794,4-4V7C103,4.794,101.206,3,99,3L99,3z"/>
</svg>