<?xml version="1.0" encoding="utf-8"?>
<!DOCTYPE svg PUBLIC "-//W3C//DTD SVG 1.1//EN" "http://www.w3.org/Graphics/SVG/1.1/DTD/svg11.dtd">
<svg version="1.1" xmlns="http://www.w3.org/2000/svg" xmlns:xlink="http://www.w3.org/1999/xlink" x="0px" y="0px" width="106px" height="160px" viewBox="0 0 106 160" enable-background="new 0 0 106 160" xml:space="preserve">
<style>path{fill:black;}</style>
<path id="center" d="M53.643,33.65c-5.531,0-10.164,1.859-13.938,5.562s-5.656,8.109-5.656,13.219c0,4.172,1.609,8.531,4.844,13.125 c-2.801-2.334-5.595-3.719-10.906-3.719c-10.391,0-17.844,8.529-17.844,19.188c0,11.301,8.248,19.906,19.25,19.906 c11.016,0,19.282-7.515,23.344-16.656c-0.188,7.453-1.32,13.352-3.406,17.688s-5.281,7.922-9.594,10.781 c-2.906,1.922-8.141,3.609-15.688,5.062l-0.562,2.405h30.156H83.83l-0.562-2.405c-7.547-1.453-12.781-3.142-15.688-5.062 c-4.312-2.859-7.508-6.445-9.594-10.781s-3.219-10.234-3.406-17.688c4.062,9.143,12.328,16.656,23.344,16.656 c11.003,0,19.25-8.605,19.25-19.906c0-10.658-7.451-19.188-17.844-19.188c-5.311,0-8.104,1.385-10.906,3.719 c3.234-4.594,4.844-8.953,4.844-13.125c0-5.109-1.883-9.516-5.656-13.219C63.839,35.509,59.174,33.65,53.643,33.65z"/>
<path id="right" d="M89.18,8.325c-1.106,0-2.033,0.372-2.789,1.112c-0.754,0.741-1.131,1.622-1.131,2.644 c0,0.834,0.322,1.706,0.969,2.625c-0.561-0.467-1.119-0.744-2.182-0.744c-2.078,0-3.568,1.706-3.568,3.837 c0,2.26,1.649,3.981,3.851,3.981c2.203,0,3.856-1.502,4.669-3.331c-0.037,1.491-0.264,2.67-0.682,3.538 c-0.418,0.867-1.057,1.584-1.918,2.156c-0.582,0.384-1.629,0.722-3.139,1.012l-0.111,0.481h6.031h6.036l-0.112-0.481 c-1.51-0.291-2.557-0.628-3.138-1.012c-0.862-0.572-1.501-1.289-1.919-2.156c-0.417-0.867-0.645-2.047-0.681-3.538 c0.812,1.829,2.466,3.331,4.669,3.331c2.199,0,3.85-1.721,3.85-3.981c0-2.132-1.49-3.837-3.568-3.837 c-1.062,0-1.621,0.277-2.182,0.744c0.646-0.919,0.969-1.791,0.969-2.625c0-1.022-0.377-1.903-1.131-2.644 C91.218,8.697,90.285,8.325,89.18,8.325z"/>
<path id="left" d="M16.816,134.361c-1.106,0-2.033,0.373-2.788,1.113c-0.754,0.739-1.131,1.621-1.131,2.645 c0,0.834,0.322,1.705,0.969,2.625c-0.561-0.467-1.119-0.744-2.182-0.744c-2.078,0-3.568,1.705-3.568,3.838 c0,2.26,1.649,3.98,3.85,3.98c2.203,0,3.856-1.502,4.669-3.332c-0.037,1.492-0.264,2.672-0.681,3.539 c-0.418,0.867-1.057,1.584-1.919,2.156c-0.581,0.383-1.628,0.721-3.138,1.012l-0.112,0.48h6.031h6.037l-0.112-0.48 c-1.51-0.291-2.557-0.629-3.138-1.012c-0.862-0.572-1.501-1.289-1.919-2.156c-0.417-0.867-0.644-2.047-0.681-3.539 c0.812,1.83,2.466,3.332,4.669,3.332c2.2,0,3.85-1.721,3.85-3.98c0-2.133-1.49-3.838-3.568-3.838c-1.062,0-1.621,0.277-2.182,0.744 c0.646-0.92,0.969-1.791,0.969-2.625c0-1.021-0.377-1.904-1.131-2.645C18.855,134.734,17.922,134.361,16.816,134.361z"/>
</svg>
