<?xml version="1.0" encoding="utf-8"?>
<!DOCTYPE svg PUBLIC "-//W3C//DTD SVG 1.1//EN" "http://www.w3.org/Graphics/SVG/1.1/DTD/svg11.dtd">
<svg version="1.1" xmlns="http://www.w3.org/2000/svg" xmlns:xlink="http://www.w3.org/1999/xlink" x="0px" y="0px" width="106px" height="160px" viewBox="0 0 106 160" enable-background="new 0 0 106 160" xml:space="preserve">
<style>path{fill:#D40000;}</style>
<path id="center" d="M53.919,35.822c-9.492,15.582-20.387,30.284-32.344,44.062c11.968,13.771,23.048,28.438,32.344,44.156 c9.295-15.72,20.375-30.386,32.345-44.156C74.307,66.106,63.411,51.404,53.919,35.822z"/>
<path id="right" d="M89.182,8.159c-1.897,3.116-4.078,6.057-6.47,8.812c2.396,2.754,4.61,5.688,6.47,8.832 c1.858-3.144,4.074-6.077,6.469-8.832C93.259,14.216,91.079,11.275,89.182,8.159z"/>
<path id="left" d="M16.818,134.195c-1.897,3.117-4.077,6.058-6.469,8.812c2.395,2.756,4.61,5.688,6.469,8.831 c1.859-3.144,4.075-6.075,6.47-8.831C20.896,140.253,18.717,137.312,16.818,134.195z"/>
</svg>
