<?xml version="1.0" encoding="utf-8"?>
<!DOCTYPE svg PUBLIC "-//W3C//DTD SVG 1.1//EN" "http://www.w3.org/Graphics/SVG/1.1/DTD/svg11.dtd">
<svg version="1.1" xmlns="http://www.w3.org/2000/svg" xmlns:xlink="http://www.w3.org/1999/xlink" x="0px" y="0px" width="500px" height="500px" viewBox="0 0 500 500" enable-background="new 0 0 500 500" xml:space="preserve">
<circle id="Outer_red_disc" fill="#CC0707" cx="250" cy="250" r="250"/>
<circle id="FA_disc" fill="#FAFAFA" cx="250" cy="250" r="175"/>
<circle id="Inner_red_disc" fill="#CC0707" cx="250" cy="250" r="150"/>
<g id="FA_segments">
	<path fill="#FAFAFA" d="M25,250H0c0,33.859,6.745,66.14,18.943,95.59l23.102-9.569C31.069,309.519,25,280.47,25,250z"/>
	<path fill="#FAFAFA" d="M480.62,346.659l-23.06-9.67c-11.395,27.153-27.955,51.604-48.462,72.11l17.678,17.678 C449.561,403.993,467.961,376.828,480.62,346.659z"/>
	<path fill="#FAFAFA" d="M250,475v25c33.496,0,65.444-6.604,94.638-18.554l-9.468-23.143C308.896,469.057,280.145,475,250,475z"/>
	<path fill="#FAFAFA" d="M90.818,409.015l-17.677,17.678c22.766,22.787,49.909,41.196,80.058,53.87l9.67-23.061 C135.735,446.095,111.307,429.524,90.818,409.015z"/>
	<path fill="#FAFAFA" d="M409.015,90.818l17.678-17.678C403.91,50.38,376.755,32,346.6,19.355l-9.67,23.06 C364.07,53.795,388.511,70.335,409.015,90.818z"/>
	<path fill="#FAFAFA" d="M475,250h25c0-33.936-6.775-66.286-19.024-95.79l-23.102,9.569C468.901,190.335,475,219.454,475,250z"/>
	<path fill="#FAFAFA" d="M90.901,90.901L73.223,73.223c-22.763,22.764-41.151,49.899-53.81,80.036l23.061,9.67 C53.866,135.808,70.415,111.387,90.901,90.901z"/>
	<path fill="#FAFAFA" d="M250,25V0c-33.528,0-65.506,6.617-94.722,18.588l9.468,23.143C191.042,30.956,219.823,25,250,25z"/>
</g>
</svg>
