<?xml version="1.0" encoding="utf-8"?>
<!DOCTYPE svg PUBLIC "-//W3C//DTD SVG 1.1//EN" "http://www.w3.org/Graphics/SVG/1.1/DTD/svg11.dtd">
<svg version="1.1" xmlns="http://www.w3.org/2000/svg" xmlns:xlink="http://www.w3.org/1999/xlink" x="0px" y="0px" width="106px" height="160px" viewBox="0 0 106 160" enable-background="new 0 0 106 160" xml:space="preserve">
<style>path{fill:#D40000;}</style>
<path id="center" d="M53.799,123.771c-1.453-5.531-3.527-10.724-6.223-15.574c-2.696-4.852-7.91-12.387-15.645-22.605 c-5.672-7.5-9.164-12.258-10.477-14.273c-2.156-3.281-3.715-6.293-4.676-9.035c-0.961-2.742-1.441-5.52-1.441-8.332 c0-5.203,1.734-9.562,5.203-13.078c3.469-3.516,7.758-5.273,12.867-5.273c5.155,0,9.633,1.828,13.43,5.484 c2.858,2.719,5.181,6.773,6.961,12.164c1.548-5.297,3.728-9.328,6.539-12.094c3.892-3.75,8.392-5.625,13.5-5.625 c5.062,0,9.353,1.746,12.867,5.238c3.515,3.492,5.272,7.652,5.272,12.48c0,4.219-1.031,8.613-3.094,13.184 c-2.062,4.571-6.047,10.559-11.953,17.964c-7.688,9.703-13.289,17.672-16.805,23.906C57.361,113.225,55.252,118.38,53.799,123.771 L53.799,123.771z"/>
<path id="right" d="M89.146,25.695c-0.291-1.106-0.707-2.145-1.246-3.115c-0.539-0.97-1.582-2.478-3.129-4.521 c-1.133-1.5-1.832-2.452-2.095-2.855c-0.432-0.656-0.743-1.258-0.936-1.807c-0.192-0.548-0.288-1.104-0.288-1.666 c0-1.041,0.347-1.913,1.041-2.616c0.693-0.703,1.551-1.055,2.572-1.055c1.031,0,1.928,0.366,2.687,1.097 c0.572,0.544,1.036,1.355,1.394,2.433c0.31-1.06,0.744-1.866,1.308-2.419c0.778-0.75,1.678-1.125,2.7-1.125 c1.013,0,1.869,0.349,2.572,1.048c0.703,0.698,1.056,1.53,1.056,2.496c0,0.844-0.206,1.723-0.619,2.637 c-0.412,0.914-1.209,2.111-2.392,3.593c-1.537,1.941-2.656,3.535-3.359,4.781C89.857,23.586,89.436,24.617,89.146,25.695 L89.146,25.695z"/>
<path id="left" d="M16.847,151.843c-0.291-1.106-0.706-2.145-1.245-3.114c-0.539-0.971-1.582-2.479-3.129-4.521 c-1.134-1.5-1.832-2.451-2.095-2.854c-0.432-0.656-0.743-1.258-0.936-1.808c-0.193-0.549-0.288-1.104-0.288-1.666 c0-1.041,0.347-1.912,1.041-2.614c0.693-0.703,1.551-1.056,2.573-1.056c1.031,0,1.927,0.365,2.686,1.097 c0.572,0.545,1.036,1.354,1.393,2.434c0.31-1.061,0.745-1.865,1.308-2.42c0.778-0.75,1.678-1.125,2.7-1.125 c1.013,0,1.87,0.35,2.573,1.049c0.703,0.697,1.055,1.529,1.055,2.496c0,0.844-0.206,1.723-0.619,2.637 c-0.412,0.914-1.209,2.111-2.391,3.594c-1.537,1.939-2.657,3.533-3.36,4.78C17.559,149.732,17.137,150.766,16.847,151.843 L16.847,151.843z"/>
</svg>
