<?xml version="1.0" encoding="utf-8"?>
<!DOCTYPE svg PUBLIC "-//W3C//DTD SVG 1.1//EN" "http://www.w3.org/Graphics/SVG/1.1/DTD/svg11.dtd">
<svg version="1.1" xmlns="http://www.w3.org/2000/svg" xmlns:xlink="http://www.w3.org/1999/xlink" x="0px" y="0px" width="106px" height="160px" viewBox="0 0 106 160" enable-background="new 0 0 106 160" xml:space="preserve">
<style>path{fill:black;}</style>
<path id="center" d="M53.919,32.958c-1.219,5.062-3.094,9.61-5.625,13.594c-2.531,3.984-7.039,8.898-13.531,14.781 c-6.492,5.883-10.609,10.392-12.344,13.532c-1.735,3.14-2.594,6.328-2.594,9.562c0,4.5,1.5,8.25,4.5,11.25s6.656,4.5,10.969,4.5 c7.72,0,13.691-5.637,17.625-11.78c-0.299,6.719-1.406,12.096-3.344,16.125c-2.086,4.336-5.28,7.924-9.594,10.78 c-2.905,1.925-8.141,3.609-15.688,5.062l-0.562,2.405h30.156h30.188l-0.562-2.405c-7.548-1.453-12.783-3.14-15.688-5.062 c-4.313-2.856-7.509-6.444-9.595-10.78c-1.936-4.021-3.043-9.392-3.344-16.095c3.934,6.136,9.945,11.75,17.656,11.75 c4.312,0,7.969-1.5,10.969-4.5s4.5-6.75,4.5-11.25c0-3.233-0.859-6.422-2.594-9.562c-1.734-3.14-5.852-7.648-12.344-13.531 s-11-10.797-13.531-14.781C57.012,42.569,55.139,38.021,53.919,32.958z"/>
<path id="right" d="M89.182,8c-0.244,1.013-0.619,1.922-1.125,2.719c-0.507,0.797-1.408,1.78-2.707,2.957 c-1.299,1.176-2.121,2.078-2.469,2.706c-0.347,0.628-0.52,1.266-0.52,1.913c0,0.9,0.301,1.65,0.9,2.25s1.331,0.9,2.193,0.9 c1.544,0,2.738-1.127,3.523-2.356c-0.059,1.344-0.28,2.419-0.668,3.225c-0.418,0.867-1.057,1.585-1.918,2.156 c-0.582,0.385-1.629,0.722-3.139,1.013l-0.111,0.481h6.03h6.038L95.1,25.481c-1.51-0.291-2.557-0.628-3.137-1.013 c-0.863-0.571-1.502-1.289-1.92-2.156c-0.387-0.804-0.607-1.878-0.668-3.219c0.787,1.227,1.988,2.35,3.531,2.35 c0.861,0,1.594-0.3,2.193-0.9c0.599-0.6,0.899-1.35,0.899-2.25c0-0.647-0.172-1.285-0.521-1.913c-0.346-0.628-1.17-1.53-2.469-2.706 c-1.298-1.177-2.199-2.16-2.705-2.957C89.8,9.922,89.425,9.013,89.182,8z"/>
<path id="left" d="M16.819,134.037c-0.244,1.013-0.619,1.922-1.125,2.719c-0.507,0.797-1.408,1.78-2.707,2.957 c-1.298,1.176-2.121,2.078-2.469,2.706c-0.347,0.628-0.519,1.267-0.519,1.912c0,0.899,0.3,1.649,0.9,2.25s1.331,0.899,2.193,0.899 c1.544,0,2.738-1.127,3.525-2.355c-0.06,1.344-0.281,2.419-0.669,3.225c-0.417,0.867-1.056,1.586-1.919,2.156 c-0.581,0.385-1.628,0.723-3.138,1.014l-0.11,0.48h6.031h6.038l-0.113-0.48c-1.509-0.291-2.557-0.629-3.137-1.014 c-0.863-0.57-1.502-1.289-1.919-2.156c-0.388-0.804-0.608-1.877-0.669-3.219c0.787,1.229,1.989,2.352,3.531,2.352 c0.862,0,1.594-0.301,2.193-0.9c0.601-0.6,0.9-1.35,0.9-2.25c0-0.646-0.172-1.284-0.519-1.912c-0.347-0.628-1.171-1.529-2.469-2.706 c-1.299-1.177-2.2-2.159-2.706-2.957C17.438,135.959,17.062,135.05,16.819,134.037z"/>
</svg>